<?xml version="1.0" encoding="utf-8"?>
<svg xmlns="http://www.w3.org/2000/svg" xmlns:xlink="http://www.w3.org/1999/xlink" width="600" height="400" viewBox="0 0 2400 1600">
<defs>
  <clipPath id="clip2000">
    <rect x="0" y="0" width="2400" height="1600"/>
  </clipPath>
</defs>
<path clip-path="url(#clip2000)" d="
M0 1600 L2400 1600 L2400 0 L0 0  Z
  " fill="#ffffff" fill-rule="evenodd" fill-opacity="1"/>
<defs>
  <clipPath id="clip2001">
    <rect x="480" y="0" width="1681" height="1600"/>
  </clipPath>
</defs>
<path clip-path="url(#clip2000)" d="
M86.9921 1521.01 L2352.76 1521.01 L2352.76 47.2441 L86.9921 47.2441  Z
  " fill="#ffffff" fill-rule="evenodd" fill-opacity="1"/>
<defs>
  <clipPath id="clip2002">
    <rect x="86" y="47" width="2267" height="1475"/>
  </clipPath>
</defs>
<polyline clip-path="url(#clip2002)" style="stroke:#000000; stroke-width:2; stroke-opacity:0.1; fill:none" points="
  151.118,1521.01 151.118,47.2441 
  "/>
<polyline clip-path="url(#clip2002)" style="stroke:#000000; stroke-width:2; stroke-opacity:0.1; fill:none" points="
  470.686,1521.01 470.686,47.2441 
  "/>
<polyline clip-path="url(#clip2002)" style="stroke:#000000; stroke-width:2; stroke-opacity:0.1; fill:none" points="
  790.254,1521.01 790.254,47.2441 
  "/>
<polyline clip-path="url(#clip2002)" style="stroke:#000000; stroke-width:2; stroke-opacity:0.1; fill:none" points="
  1109.82,1521.01 1109.82,47.2441 
  "/>
<polyline clip-path="url(#clip2002)" style="stroke:#000000; stroke-width:2; stroke-opacity:0.1; fill:none" points="
  1429.39,1521.01 1429.39,47.2441 
  "/>
<polyline clip-path="url(#clip2002)" style="stroke:#000000; stroke-width:2; stroke-opacity:0.1; fill:none" points="
  1748.96,1521.01 1748.96,47.2441 
  "/>
<polyline clip-path="url(#clip2002)" style="stroke:#000000; stroke-width:2; stroke-opacity:0.1; fill:none" points="
  1748.96,1521.01 1748.96,47.2441 
  "/>
<polyline clip-path="url(#clip2002)" style="stroke:#000000; stroke-width:2; stroke-opacity:0.1; fill:none" points="
  86.9921,1295.5 2352.76,1295.5 
  "/>
<polyline clip-path="url(#clip2002)" style="stroke:#000000; stroke-width:2; stroke-opacity:0.1; fill:none" points="
  86.9921,1035.1 2352.76,1035.1 
  "/>
<polyline clip-path="url(#clip2002)" style="stroke:#000000; stroke-width:2; stroke-opacity:0.1; fill:none" points="
  86.9921,774.697 2352.76,774.697 
  "/>
<polyline clip-path="url(#clip2002)" style="stroke:#000000; stroke-width:2; stroke-opacity:0.1; fill:none" points="
  86.9921,514.297 2352.76,514.297 
  "/>
<polyline clip-path="url(#clip2002)" style="stroke:#000000; stroke-width:2; stroke-opacity:0.1; fill:none" points="
  86.9921,253.896 2352.76,253.896 
  "/>
<polyline clip-path="url(#clip2000)" style="stroke:#000000; stroke-width:4; stroke-opacity:1; fill:none" points="
  86.9921,1521.01 2352.76,1521.01 
  "/>
<polyline clip-path="url(#clip2000)" style="stroke:#000000; stroke-width:4; stroke-opacity:1; fill:none" points="
  86.9921,1521.01 86.9921,47.2441 
  "/>
<polyline clip-path="url(#clip2000)" style="stroke:#000000; stroke-width:4; stroke-opacity:1; fill:none" points="
  151.118,1521.01 151.118,1503.32 
  "/>
<polyline clip-path="url(#clip2000)" style="stroke:#000000; stroke-width:4; stroke-opacity:1; fill:none" points="
  470.686,1521.01 470.686,1503.32 
  "/>
<polyline clip-path="url(#clip2000)" style="stroke:#000000; stroke-width:4; stroke-opacity:1; fill:none" points="
  790.254,1521.01 790.254,1503.32 
  "/>
<polyline clip-path="url(#clip2000)" style="stroke:#000000; stroke-width:4; stroke-opacity:1; fill:none" points="
  1109.82,1521.01 1109.82,1503.32 
  "/>
<polyline clip-path="url(#clip2000)" style="stroke:#000000; stroke-width:4; stroke-opacity:1; fill:none" points="
  1429.39,1521.01 1429.39,1503.32 
  "/>
<polyline clip-path="url(#clip2000)" style="stroke:#000000; stroke-width:4; stroke-opacity:1; fill:none" points="
  1748.96,1521.01 1748.96,1503.32 
  "/>
<polyline clip-path="url(#clip2000)" style="stroke:#000000; stroke-width:4; stroke-opacity:1; fill:none" points="
  1748.96,1521.01 1748.96,1503.32 
  "/>
<polyline clip-path="url(#clip2000)" style="stroke:#000000; stroke-width:4; stroke-opacity:1; fill:none" points="
  86.9921,1295.5 114.181,1295.5 
  "/>
<polyline clip-path="url(#clip2000)" style="stroke:#000000; stroke-width:4; stroke-opacity:1; fill:none" points="
  86.9921,1035.1 114.181,1035.1 
  "/>
<polyline clip-path="url(#clip2000)" style="stroke:#000000; stroke-width:4; stroke-opacity:1; fill:none" points="
  86.9921,774.697 114.181,774.697 
  "/>
<polyline clip-path="url(#clip2000)" style="stroke:#000000; stroke-width:4; stroke-opacity:1; fill:none" points="
  86.9921,514.297 114.181,514.297 
  "/>
<polyline clip-path="url(#clip2000)" style="stroke:#000000; stroke-width:4; stroke-opacity:1; fill:none" points="
  86.9921,253.896 114.181,253.896 
  "/>
<g clip-path="url(#clip2000)">
<text style="fill:#000000; fill-opacity:1; font-family:Arial,Helvetica Neue,Helvetica,sans-serif; font-size:48px; text-anchor:middle;" transform="rotate(0, 151.118, 1575.01)" x="151.118" y="1575.01">0</text>
</g>
<g clip-path="url(#clip2000)">
<text style="fill:#000000; fill-opacity:1; font-family:Arial,Helvetica Neue,Helvetica,sans-serif; font-size:48px; text-anchor:middle;" transform="rotate(0, 470.686, 1575.01)" x="470.686" y="1575.01">20</text>
</g>
<g clip-path="url(#clip2000)">
<text style="fill:#000000; fill-opacity:1; font-family:Arial,Helvetica Neue,Helvetica,sans-serif; font-size:48px; text-anchor:middle;" transform="rotate(0, 790.254, 1575.01)" x="790.254" y="1575.01">40</text>
</g>
<g clip-path="url(#clip2000)">
<text style="fill:#000000; fill-opacity:1; font-family:Arial,Helvetica Neue,Helvetica,sans-serif; font-size:48px; text-anchor:middle;" transform="rotate(0, 1109.82, 1575.01)" x="1109.82" y="1575.01">60</text>
</g>
<g clip-path="url(#clip2000)">
<text style="fill:#000000; fill-opacity:1; font-family:Arial,Helvetica Neue,Helvetica,sans-serif; font-size:48px; text-anchor:middle;" transform="rotate(0, 1429.39, 1575.01)" x="1429.39" y="1575.01">80</text>
</g>
<g clip-path="url(#clip2000)">
<text style="fill:#000000; fill-opacity:1; font-family:Arial,Helvetica Neue,Helvetica,sans-serif; font-size:48px; text-anchor:middle;" transform="rotate(0, 1748.96, 1575.01)" x="1748.96" y="1575.01">100</text>
</g>
<g clip-path="url(#clip2000)">
<text style="fill:#000000; fill-opacity:1; font-family:Arial,Helvetica Neue,Helvetica,sans-serif; font-size:48px; text-anchor:middle;" transform="rotate(0, 1748.96, 1575.01)" x="1748.96" y="1575.01">100</text>
</g>
<g clip-path="url(#clip2000)">
<text style="fill:#000000; fill-opacity:1; font-family:Arial,Helvetica Neue,Helvetica,sans-serif; font-size:48px; text-anchor:end;" transform="rotate(0, 62.9921, 1313)" x="62.9921" y="1313">-5.0</text>
</g>
<g clip-path="url(#clip2000)">
<text style="fill:#000000; fill-opacity:1; font-family:Arial,Helvetica Neue,Helvetica,sans-serif; font-size:48px; text-anchor:end;" transform="rotate(0, 62.9921, 1052.6)" x="62.9921" y="1052.6">-2.5</text>
</g>
<g clip-path="url(#clip2000)">
<text style="fill:#000000; fill-opacity:1; font-family:Arial,Helvetica Neue,Helvetica,sans-serif; font-size:48px; text-anchor:end;" transform="rotate(0, 62.9921, 792.197)" x="62.9921" y="792.197">0.0</text>
</g>
<g clip-path="url(#clip2000)">
<text style="fill:#000000; fill-opacity:1; font-family:Arial,Helvetica Neue,Helvetica,sans-serif; font-size:48px; text-anchor:end;" transform="rotate(0, 62.9921, 531.797)" x="62.9921" y="531.797">2.5</text>
</g>
<g clip-path="url(#clip2000)">
<text style="fill:#000000; fill-opacity:1; font-family:Arial,Helvetica Neue,Helvetica,sans-serif; font-size:48px; text-anchor:end;" transform="rotate(0, 62.9921, 271.396)" x="62.9921" y="271.396">5.0</text>
</g>
<polyline clip-path="url(#clip2002)" style="stroke:#009af9; stroke-width:4; stroke-opacity:1; fill:none" points="
  151.118,666.594 1799.65,738.532 1953.54,751.257 2037.49,757.379 2091.88,761.059 2130.36,763.534 2159.16,765.316 2181.56,766.663 2199.52,767.716 2214.25,768.561 
  2226.55,769.255 2236.98,769.833 2245.94,770.323 2253.73,770.742 2260.55,771.105 2266.59,771.421 2271.96,771.699 2276.77,771.946 2281.12,772.166 2285.05,772.362 
  2288.63,772.539 
  "/>
<polyline clip-path="url(#clip2002)" style="stroke:#e26f46; stroke-width:4; stroke-opacity:1; fill:none" points="
  151.118,1434.59 1799.65,921.864 1953.54,872.409 2037.49,849.408 2091.88,835.622 2130.36,826.31 2159.16,819.556 2181.56,814.415 2199.52,810.364 2214.25,807.086 
  2226.55,804.376 2236.98,802.097 2245.94,800.153 2253.73,798.475 2260.55,797.011 2266.59,795.723 2271.96,794.58 2276.77,793.558 2281.12,792.64 2285.05,791.811 
  2288.63,791.057 
  "/>
<polyline clip-path="url(#clip2002)" style="stroke:#3da44d; stroke-width:4; stroke-opacity:1; fill:none" points="
  151.118,1479.3 1799.65,968.322 1953.54,913.205 2037.49,885.092 2091.88,867.172 2130.36,854.527 2159.16,845.049 2181.56,837.649 2199.52,831.699 2214.25,826.802 
  2226.55,822.699 2236.98,819.208 2245.94,816.201 2253.73,813.582 2260.55,811.281 2266.59,809.242 2271.96,807.423 2276.77,805.79 2281.12,804.315 2285.05,802.977 
  2288.63,801.757 
  "/>
<polyline clip-path="url(#clip2002)" style="stroke:#c271d2; stroke-width:4; stroke-opacity:1; fill:none" points="
  151.118,671.132 1799.65,768.643 1953.54,771.51 2037.49,772.341 2091.88,772.752 2130.36,773.023 2159.16,773.231 2181.56,773.401 2199.52,773.545 2214.25,773.67 
  2226.55,773.78 2236.98,773.877 2245.94,773.963 2253.73,774.041 2260.55,774.11 2266.59,774.173 2271.96,774.229 2276.77,774.281 2281.12,774.328 2285.05,774.37 
  2288.63,774.41 
  "/>
<polyline clip-path="url(#clip2002)" style="stroke:#ac8d18; stroke-width:4; stroke-opacity:1; fill:none" points="
  151.118,209.087 1799.65,646.156 1953.54,689.429 2037.49,709.75 2091.88,721.989 2130.36,730.278 2159.16,736.3 2181.56,740.886 2199.52,744.5 2214.25,747.425 
  2226.55,749.842 2236.98,751.872 2245.94,753.603 2253.73,755.095 2260.55,756.395 2266.59,757.538 2271.96,758.551 2276.77,759.454 2281.12,760.265 2285.05,760.996 
  2288.63,761.659 
  "/>
<polyline clip-path="url(#clip2002)" style="stroke:#00a9ad; stroke-width:4; stroke-opacity:1; fill:none" points="
  151.118,88.9544 1799.65,596.856 1953.54,651.464 2037.49,678.365 2091.88,695.108 2130.36,706.725 2159.16,715.323 2181.56,721.97 2199.52,727.273 2214.25,731.608 
  2226.55,735.222 2236.98,738.281 2245.94,740.905 2253.73,743.181 2260.55,745.174 2266.59,746.935 2271.96,748.501 2276.77,749.903 2281.12,751.165 2285.05,752.308 
  2288.63,753.347 
  "/>
<polyline clip-path="url(#clip2002)" style="stroke:#ed5d92; stroke-width:4; stroke-opacity:1; fill:none" points="
  151.118,261.736 1799.65,624.005 1953.54,666.998 2037.49,689.484 2091.88,703.879 2130.36,714.022 2159.16,721.597 2181.56,727.488 2199.52,732.207 2214.25,736.074 
  2226.55,739.304 2236.98,742.042 2245.94,744.393 2253.73,746.435 2260.55,748.223 2266.59,749.803 2271.96,751.209 2276.77,752.468 2281.12,753.603 2285.05,754.629 
  2288.63,755.563 
  "/>
<polyline clip-path="url(#clip2002)" style="stroke:#c68125; stroke-width:4; stroke-opacity:1; fill:none" points="
  151.118,639.472 1799.65,775.314 1953.54,779.866 2037.49,780.608 2091.88,780.572 2130.36,780.331 2159.16,780.042 2181.56,779.756 2199.52,779.488 2214.25,779.243 
  2226.55,779.021 2236.98,778.82 2245.94,778.638 2253.73,778.473 2260.55,778.323 2266.59,778.185 2271.96,778.059 2276.77,777.943 2281.12,777.836 2285.05,777.737 
  2288.63,777.645 
  "/>
<polyline clip-path="url(#clip2002)" style="stroke:#00a98d; stroke-width:4; stroke-opacity:1; fill:none" points="
  151.118,1088.2 1799.65,877.607 1953.54,849.813 2037.49,835.104 2091.88,825.589 2130.36,818.819 2159.16,813.716 2181.56,809.715 2199.52,806.486 2214.25,803.822 
  2226.55,801.583 2236.98,799.674 2245.94,798.026 2253.73,796.589 2260.55,795.324 2266.59,794.202 2271.96,793.199 2276.77,792.297 2281.12,791.482 2285.05,790.741 
  2288.63,790.066 
  "/>
<polyline clip-path="url(#clip2002)" style="stroke:#8e971d; stroke-width:4; stroke-opacity:1; fill:none" points="
  151.118,1291.85 1799.65,876.875 1953.54,838.279 2037.49,821.309 2091.88,811.612 2130.36,805.311 2159.16,800.883 2181.56,797.599 2199.52,795.066 2214.25,793.054 
  2226.55,791.416 2236.98,790.057 2245.94,788.911 2253.73,787.932 2260.55,787.085 2266.59,786.345 2271.96,785.694 2276.77,785.115 2281.12,784.598 2285.05,784.133 
  2288.63,783.713 
  "/>
<path clip-path="url(#clip2000)" d="
M1963.16 796.044 L2280.76 796.044 L2280.76 130.764 L1963.16 130.764  Z
  " fill="#ffffff" fill-rule="evenodd" fill-opacity="1"/>
<polyline clip-path="url(#clip2000)" style="stroke:#000000; stroke-width:4; stroke-opacity:1; fill:none" points="
  1963.16,796.044 2280.76,796.044 2280.76,130.764 1963.16,130.764 1963.16,796.044 
  "/>
<polyline clip-path="url(#clip2000)" style="stroke:#009af9; stroke-width:4; stroke-opacity:1; fill:none" points="
  1987.16,191.244 2131.16,191.244 
  "/>
<g clip-path="url(#clip2000)">
<text style="fill:#000000; fill-opacity:1; font-family:Arial,Helvetica Neue,Helvetica,sans-serif; font-size:48px; text-anchor:start;" transform="rotate(0, 2155.16, 208.744)" x="2155.16" y="208.744">y1</text>
</g>
<polyline clip-path="url(#clip2000)" style="stroke:#e26f46; stroke-width:4; stroke-opacity:1; fill:none" points="
  1987.16,251.724 2131.16,251.724 
  "/>
<g clip-path="url(#clip2000)">
<text style="fill:#000000; fill-opacity:1; font-family:Arial,Helvetica Neue,Helvetica,sans-serif; font-size:48px; text-anchor:start;" transform="rotate(0, 2155.16, 269.224)" x="2155.16" y="269.224">y2</text>
</g>
<polyline clip-path="url(#clip2000)" style="stroke:#3da44d; stroke-width:4; stroke-opacity:1; fill:none" points="
  1987.16,312.204 2131.16,312.204 
  "/>
<g clip-path="url(#clip2000)">
<text style="fill:#000000; fill-opacity:1; font-family:Arial,Helvetica Neue,Helvetica,sans-serif; font-size:48px; text-anchor:start;" transform="rotate(0, 2155.16, 329.704)" x="2155.16" y="329.704">y3</text>
</g>
<polyline clip-path="url(#clip2000)" style="stroke:#c271d2; stroke-width:4; stroke-opacity:1; fill:none" points="
  1987.16,372.684 2131.16,372.684 
  "/>
<g clip-path="url(#clip2000)">
<text style="fill:#000000; fill-opacity:1; font-family:Arial,Helvetica Neue,Helvetica,sans-serif; font-size:48px; text-anchor:start;" transform="rotate(0, 2155.16, 390.184)" x="2155.16" y="390.184">y4</text>
</g>
<polyline clip-path="url(#clip2000)" style="stroke:#ac8d18; stroke-width:4; stroke-opacity:1; fill:none" points="
  1987.16,433.164 2131.16,433.164 
  "/>
<g clip-path="url(#clip2000)">
<text style="fill:#000000; fill-opacity:1; font-family:Arial,Helvetica Neue,Helvetica,sans-serif; font-size:48px; text-anchor:start;" transform="rotate(0, 2155.16, 450.664)" x="2155.16" y="450.664">y5</text>
</g>
<polyline clip-path="url(#clip2000)" style="stroke:#00a9ad; stroke-width:4; stroke-opacity:1; fill:none" points="
  1987.16,493.644 2131.16,493.644 
  "/>
<g clip-path="url(#clip2000)">
<text style="fill:#000000; fill-opacity:1; font-family:Arial,Helvetica Neue,Helvetica,sans-serif; font-size:48px; text-anchor:start;" transform="rotate(0, 2155.16, 511.144)" x="2155.16" y="511.144">y6</text>
</g>
<polyline clip-path="url(#clip2000)" style="stroke:#ed5d92; stroke-width:4; stroke-opacity:1; fill:none" points="
  1987.16,554.124 2131.16,554.124 
  "/>
<g clip-path="url(#clip2000)">
<text style="fill:#000000; fill-opacity:1; font-family:Arial,Helvetica Neue,Helvetica,sans-serif; font-size:48px; text-anchor:start;" transform="rotate(0, 2155.16, 571.624)" x="2155.16" y="571.624">y7</text>
</g>
<polyline clip-path="url(#clip2000)" style="stroke:#c68125; stroke-width:4; stroke-opacity:1; fill:none" points="
  1987.16,614.604 2131.16,614.604 
  "/>
<g clip-path="url(#clip2000)">
<text style="fill:#000000; fill-opacity:1; font-family:Arial,Helvetica Neue,Helvetica,sans-serif; font-size:48px; text-anchor:start;" transform="rotate(0, 2155.16, 632.104)" x="2155.16" y="632.104">y8</text>
</g>
<polyline clip-path="url(#clip2000)" style="stroke:#00a98d; stroke-width:4; stroke-opacity:1; fill:none" points="
  1987.16,675.084 2131.16,675.084 
  "/>
<g clip-path="url(#clip2000)">
<text style="fill:#000000; fill-opacity:1; font-family:Arial,Helvetica Neue,Helvetica,sans-serif; font-size:48px; text-anchor:start;" transform="rotate(0, 2155.16, 692.584)" x="2155.16" y="692.584">y9</text>
</g>
<polyline clip-path="url(#clip2000)" style="stroke:#8e971d; stroke-width:4; stroke-opacity:1; fill:none" points="
  1987.16,735.564 2131.16,735.564 
  "/>
<g clip-path="url(#clip2000)">
<text style="fill:#000000; fill-opacity:1; font-family:Arial,Helvetica Neue,Helvetica,sans-serif; font-size:48px; text-anchor:start;" transform="rotate(0, 2155.16, 753.064)" x="2155.16" y="753.064">y10</text>
</g>
</svg>
